<?xml version="1.0" encoding="UTF-8"?>
<svg id="_圖層_1" data-name="圖層 1" xmlns="http://www.w3.org/2000/svg" viewBox="0 0 200 200">
  <defs>
    <style>
      .cls-1 {
        stroke: #fff;
        stroke-linecap: round;
        stroke-width: 3.23px;
      }

      .cls-1, .cls-2 {
        fill: none;
        stroke-miterlimit: 20;
      }

      .cls-2 {
        stroke: #333;
        stroke-width: 3px;
      }

      .cls-3 {
        fill: #fff;
      }

      .cls-4 {
        fill: #e15b64;
      }

      .cls-5 {
        fill: #333;
      }
    </style>
  </defs>
  <path class="cls-4" d="M155.6,125.8H44.8V24.8c0-5.4,4.4-9.8,9.8-9.8h91.4c5.4,0,9.8,4.4,9.8,9.8v101h-.2Z"/>
  <path class="cls-5" d="M61.4,147.8h-10.8c-3.6,0-6.4,2.2-6.4,4.8v27.6c0,2.6,3,4.8,6.4,4.8h10.8c3.6,0,6.4-2.2,6.4-4.8v-27.6c0-2.6-2.8-4.8-6.4-4.8Z"/>
  <path class="cls-5" d="M137.6,147.8h10.8c3.6,0,6.4,2.2,6.4,4.8v27.6c0,2.6-3,4.8-6.4,4.8h-10.8c-3.6,0-6.4-2.2-6.4-4.8v-27.6c0-2.6,2.8-4.8,6.4-4.8Z"/>
  <path class="cls-5" d="M155.6,161.8H44.4c-2.6,0-4.6-2-4.6-4.6v-30.8c0-6,4.8-10.8,10.8-10.8h98.4c6,0,10.8,4.8,10.8,10.8v31c.2,2.4-1.8,4.4-4.2,4.4h0Z"/>
  <path class="cls-5" d="M126.8,50.4h-53.6c-10,0-18.2,8.2-18.2,18.2v49.4h90v-49.4c0-10-8.2-18.2-18.2-18.2Z"/>
  <path class="cls-3" d="M133.4,65h-66.8c-2.2,0-4,1.8-4,4v16.4c0,2.2,1.8,4,4,4h67c2.2,0,4-1.8,4-4v-16.4c0-2.2-1.8-4-4.2-4h0Z"/>
  <path class="cls-1" d="M77.4,146.4h45.2"/>
  <path class="cls-1" d="M77.4,137.4h45.2"/>
  <path class="cls-1" d="M77.4,128.4h45.2"/>
  <path class="cls-1" d="M77.4,119.4h45.2"/>
  <path class="cls-1" d="M77.4,110.4h45.2"/>
  <path class="cls-5" d="M162,166.4H38c-1.8,0-3.4-1.6-3.4-3.4v-6.8c0-1.8,1.6-3.4,3.4-3.4h124c1.8,0,3.4,1.6,3.4,3.4v6.8c0,1.8-1.4,3.4-3.4,3.4Z"/>
  <path class="cls-3" d="M60.8,150h-12.4c-1.6,0-2.8-1.2-2.8-2.8v-4.2c0-1.6,1.2-2.8,2.8-2.8h12.4c1.6,0,2.8,1.2,2.8,2.8v4.2c0,1.4-1.2,2.8-2.8,2.8Z"/>
  <path class="cls-3" d="M138.4,150h12.4c1.6,0,2.8-1.2,2.8-2.8v-4.2c0-1.6-1.2-2.8-2.8-2.8h-12.4c-1.6,0-2.8,1.2-2.8,2.8v4.2c0,1.4,1.4,2.8,2.8,2.8Z"/>
  <path class="cls-5" d="M59.8,116.2h-8.6V36c0-.4.2-.8.4-1l5.4-6c1-1.2,2.8-.4,2.8,1v86.2Z"/>
  <path class="cls-5" d="M139.4,116.2h8.6V36c0-.4-.2-.8-.4-1l-5.4-6c-1-1.2-2.8-.4-2.8,1v86.2h0Z"/>
  <path class="cls-5" d="M160,88.4h-7.6c-1.2,0-2-.8-2-2v-16.2c0-1.2.8-2,2-2h7.6c1.2,0,2,.8,2,2v16.2c0,1-.8,2-2,2Z"/>
  <path class="cls-2" d="M143.8,62.8h8.4c2.2,0,4.2,1.8,4.2,4.2v22.6c0,2.2-1.8,4.2-4.2,4.2h-7.4"/>
  <path class="cls-5" d="M39,88.4h7.6c1.2,0,2-.8,2-2v-16.2c0-1.2-.8-2-2-2h-7.6c-1.2,0-2,.8-2,2v16.2c0,1,.8,2,2,2Z"/>
  <path class="cls-2" d="M55.2,62.8h-8.4c-2.2,0-4.2,1.8-4.2,4.2v22.6c0,2.2,1.8,4.2,4.2,4.2h7.4"/>
</svg>